<?xml version="1.0" encoding="utf-8"?>
<!-- Generator: Adobe Illustrator 27.5.0, SVG Export Plug-In . SVG Version: 6.00 Build 0)  -->
<svg version="1.1" xmlns="http://www.w3.org/2000/svg" xmlns:xlink="http://www.w3.org/1999/xlink" x="0px" y="0px"
	 viewBox="0 0 1080 1080" style="enable-background:new 0 0 1080 1080;" xml:space="preserve">
<style type="text/css">
	.st0{display:none;}
	.st1{fill:#8687BA;}
	.st2{fill:#B0AFDC;}
	.st3{fill:#D8D8F1;}
	.st4{fill:#8987B8;}
	.st5{fill:#B0AFD6;}
	.st6{fill:#AEB0D9;}
	.st7{fill:#D8D9EE;}
	.st8{fill:#8888B3;}
	.st9{fill:#D7D7EE;}
</style>
<g id="Layer_1" class="st0">
	
		<image style="display:inline;overflow:visible;" width="1016" height="790" xlink:href="../../../../../../Screenshot 2023-05-09 at 1.09.28 pm.png"  transform="matrix(1.063 0 0 1.063 0 61.6969)">
	</image>
</g>
<g id="Layer_2">
	<g>
		<g>
			<path d="M198.2,869.1h8.8c1.4,0,2.4,0.1,3.1,0.2c0.7,0.1,1.4,0.3,2,0.5c1,0.4,1.7,1.1,2.3,1.9c0.6,0.9,0.8,1.9,0.8,3
				c0,2.6-0.9,4.7-2.8,6.3c-1.9,1.6-4.4,2.4-7.5,2.4c-0.5,0-0.9,0-1.3,0c-0.3,0-0.6,0-0.9,0l-1.1,6.1l0.3,0.6l2.2,0.1v1.7h-9.5v-1.7
				l2.2-0.2l0.5-0.5l3.4-18.2l-0.3-0.6l-2.1-0.2V869.1z M205,871l-2,10.5c0.1,0,0.3,0,0.4,0c0.1,0,0.4,0,0.6,0c2,0,3.6-0.6,4.8-1.7
				c1.1-1.2,1.7-2.8,1.7-4.8c0-1.4-0.4-2.4-1.1-3.1c-0.8-0.7-1.9-1-3.5-1c-0.2,0-0.4,0-0.5,0C205.2,871,205.1,871,205,871z"/>
			<path d="M222.4,875.2h1.2l-0.9,4.6c1.1-1.5,2.1-2.6,3.1-3.4c1-0.8,1.9-1.2,2.7-1.2c0.7,0,1.3,0.2,1.8,0.7
				c0.5,0.5,0.7,1.1,0.7,1.8c0,0.8-0.3,1.5-0.9,2.1s-1.4,0.8-2.4,0.8h-0.1l-0.9-2.6c-1.3,0.6-2.3,1.3-3.1,2.3s-1.2,2.2-1.5,3.8
				l-1.3,7.9h-4.2l2.7-13.8l-2.8-0.4v-1.2L222.4,875.2z"/>
			<path d="M241.1,875.2c2.1,0,3.8,0.6,5,1.9c1.2,1.3,1.9,3,1.9,5.1c0,1.4-0.3,2.7-0.8,4s-1.2,2.4-2.2,3.4c-0.9,0.9-1.8,1.5-3,2
				c-1.1,0.5-2.3,0.7-3.6,0.7c-2.1,0-3.8-0.6-5-1.9c-1.2-1.3-1.9-3-1.9-5.1c0-1.3,0.3-2.6,0.8-3.9c0.5-1.3,1.2-2.4,2.2-3.4
				c0.9-0.9,1.8-1.6,3-2S239.9,875.2,241.1,875.2z M240.7,877c-1.3,0-2.4,0.8-3.3,2.5c-0.9,1.7-1.4,3.8-1.4,6.3
				c0,1.6,0.2,2.7,0.7,3.5c0.5,0.8,1.2,1.2,2.1,1.2c1.3,0,2.4-0.8,3.4-2.5c0.9-1.7,1.4-3.7,1.4-6.2c0-1.6-0.2-2.8-0.7-3.6
				C242.4,877.4,241.6,877,240.7,877z"/>
			<path d="M256.2,875.2h1.5l-0.5,2.3c0.9-0.8,1.9-1.4,2.8-1.7c0.9-0.4,1.8-0.6,2.7-0.6c1.4,0,2.5,0.5,3.3,1.6s1.2,2.5,1.2,4.3
				c0,1.6-0.3,3.1-0.8,4.4c-0.5,1.3-1.3,2.5-2.3,3.6c-0.9,0.9-1.9,1.6-3.1,2.2c-1.2,0.5-2.4,0.8-3.6,0.8c-0.4,0-0.8,0-1.3-0.1
				c-0.4-0.1-0.9-0.2-1.4-0.4l-1,5.9l3.2,0.6v1.3h-9.5V898l2.1-0.5l0.3-0.4l3.3-19l-2.7-0.3v-1.2L256.2,875.2z M255.2,889.6
				c0.4,0.2,0.8,0.3,1.2,0.4c0.4,0.1,0.8,0.1,1.2,0.1c1.5,0,2.8-0.8,3.9-2.5s1.6-3.7,1.6-6.1c0-1.2-0.2-2.1-0.7-2.8
				c-0.5-0.7-1.1-1-2-1c-0.5,0-1,0.1-1.5,0.4c-0.5,0.2-1.1,0.6-1.8,1.1L255.2,889.6z"/>
			<path d="M275.7,875.2h1.3l-0.6,3.3c1.2-1.1,2.4-1.9,3.5-2.5c1.1-0.6,2.1-0.9,3.1-0.9c1,0,1.8,0.3,2.3,0.8
				c0.5,0.6,0.8,1.4,0.9,2.4c1.2-1,2.3-1.8,3.4-2.4c1.1-0.6,2.1-0.8,2.9-0.8c1,0,1.9,0.3,2.5,0.9c0.6,0.6,0.9,1.4,0.9,2.5
				c0,0.3,0,0.6-0.1,1c0,0.3-0.1,0.8-0.2,1.2l-1.1,5.1c-0.1,0.6-0.2,1.1-0.3,1.5c-0.1,0.4-0.1,0.8-0.1,1c0,0.5,0.1,1,0.4,1.3
				c0.3,0.3,0.6,0.5,1,0.5c0.3,0,0.7,0,1.1-0.1c0.4-0.1,0.8-0.2,1.2-0.4v1.3c-1.1,0.4-2.1,0.7-2.9,0.9c-0.8,0.2-1.6,0.3-2.2,0.3
				c-0.9,0-1.6-0.2-2.1-0.6s-0.7-1-0.7-1.9c0-0.2,0-0.5,0.1-0.8c0-0.3,0.1-0.7,0.2-1.1l1.3-6c0.1-0.4,0.2-0.8,0.2-1.1
				c0-0.3,0.1-0.6,0.1-0.9c0-0.6-0.1-1.1-0.4-1.4c-0.3-0.3-0.7-0.5-1.3-0.5c-0.5,0-1.2,0.2-1.9,0.6c-0.7,0.4-1.4,0.9-2.1,1.6
				l-2,11.8h-4.2l2-10.2c0.1-0.5,0.2-0.9,0.2-1.1c0-0.2,0-0.4,0-0.6c0-0.6-0.1-1.1-0.4-1.5s-0.7-0.5-1.3-0.5c-0.5,0-1.1,0.2-1.8,0.6
				c-0.7,0.4-1.5,0.9-2.3,1.6l-2.1,11.8H270l2.6-13.8l-2.7-0.4v-1.2L275.7,875.2z"/>
			<path d="M305.4,871.5h2.2l-0.8,4.3h4.7v2h-5l-1.5,8.3c-0.1,0.3-0.1,0.7-0.1,0.9c0,0.3,0,0.5,0,0.8c0,0.7,0.2,1.3,0.5,1.6
				c0.3,0.4,0.8,0.5,1.5,0.5c0.4,0,0.8-0.1,1.3-0.2c0.5-0.1,1-0.3,1.7-0.5v1.4c-1.4,0.5-2.6,0.9-3.6,1.1c-1,0.2-1.7,0.3-2.3,0.3
				c-1.1,0-1.9-0.3-2.4-0.8c-0.6-0.6-0.8-1.4-0.8-2.4c0-0.3,0-0.7,0.1-1.1c0-0.4,0.1-0.7,0.2-1.2l1.7-9l-2.2,0.1v-1.2l2.9-1.5
				L305.4,871.5z"/>
			<path d="M331.3,891.2c-1.1,0.4-2.3,0.7-3.4,0.9c-1.2,0.2-2.3,0.3-3.4,0.3c-1.1,0-2.2-0.1-3.1-0.3c-1-0.2-1.9-0.6-2.7-1
				c-1.8-1-3.3-2.5-4.3-4.4c-1-1.9-1.6-3.9-1.6-6.1c0-3.5,1.1-6.4,3.2-8.6c2.2-2.2,5-3.2,8.6-3.2c1,0,2.1,0.1,3.2,0.3
				c1.1,0.2,2.3,0.5,3.5,0.9v5.2h-1.9l-0.5-3.1l-0.4-0.6c-0.7-0.3-1.3-0.5-1.9-0.7c-0.6-0.1-1.3-0.2-1.9-0.2c-2.6,0-4.6,0.9-6.1,2.6
				c-1.5,1.7-2.3,4.1-2.3,7.1c0,3.2,0.8,5.7,2.4,7.5c1.6,1.8,3.7,2.7,6.5,2.7c0.5,0,1,0,1.5-0.1c0.5-0.1,1-0.2,1.5-0.3l0.5-0.5
				l0.8-3.8h1.8V891.2z"/>
			<path d="M333.8,891.9v-1.2l1.8-0.2l0.6-0.5v-12.3h-2.4v-1.1l4-1.2h1.3v3.2c0.6-0.6,1.1-1.1,1.7-1.7c0.6-0.5,1.2-1.1,1.9-1.6
				c0.1,0,0.2-0.1,0.3-0.1s0.3,0,0.5,0c0.3,0,0.7,0,1,0.1c0.3,0.1,0.7,0.2,1,0.3v2.9h-1.1c-0.2-0.3-0.5-0.5-0.8-0.6
				c-0.3-0.1-0.6-0.2-1-0.2c-0.5,0-1.1,0.2-1.7,0.6c-0.6,0.4-1.3,1-2,1.9v9.7l0.6,0.5l2.4,0.2v1.2H333.8z"/>
			<path d="M357.2,890c-1.1,0.8-2.1,1.3-3,1.7c-0.9,0.4-1.8,0.5-2.6,0.5c-1.3,0-2.4-0.4-3.2-1.2c-0.8-0.8-1.2-1.8-1.2-3.2
				c0-1.5,0.6-2.6,1.8-3.4c1.2-0.8,3.9-1.8,8.1-2.8v-1.1c0-1.4-0.2-2.4-0.7-3s-1.3-0.8-2.4-0.8c-0.4,0-0.9,0-1.3,0.1
				c-0.4,0.1-0.9,0.2-1.3,0.4v2.9h-2.3c-0.4,0-0.7-0.1-0.8-0.2c-0.1-0.2-0.2-0.4-0.2-0.8c0-1.1,0.6-2,1.9-2.8s2.9-1.1,5-1.1
				c1.8,0,3.1,0.4,3.9,1.2c0.8,0.8,1.2,2,1.2,3.7v9.9l0.6,0.5l1.8,0.2v1.2h-4.8L357.2,890z M357.2,888.8v-6
				c-2.8,0.8-4.7,1.5-5.6,2.2c-0.9,0.7-1.3,1.5-1.3,2.6c0,0.9,0.2,1.5,0.7,2c0.5,0.5,1.2,0.8,2,0.8c0.5,0,1.1-0.1,1.8-0.4
				C355.5,889.7,356.3,889.3,357.2,888.8z"/>
			<path d="M364,891.9v-1.2l1.8-0.2l0.6-0.5v-12.4h-2.2v-1.1l2.2-0.5v-0.4c0-2.7,0.6-4.9,1.9-6.6s2.9-2.5,5-2.5
				c0.8,0,1.4,0.2,1.9,0.6c0.5,0.4,0.7,0.8,0.7,1.4c0,0.4-0.1,0.8-0.4,1.1c-0.2,0.3-0.6,0.5-1,0.6l-3.1-2c-0.7,0.3-1.3,0.9-1.7,1.8
				c-0.4,0.9-0.6,2-0.6,3.5v2.5h4.7v1.6h-4.8V890l0.6,0.5l2.1,0.2v1.2H364z"/>
			<path d="M376.9,877.6h-2.1v-1.1l2.2-1l1.5-3.2h1.3v3.6h5.2v1.6h-5.2v9c0,1.5,0.2,2.5,0.6,3c0.4,0.5,1.1,0.8,2.2,0.8
				c0.4,0,0.7,0,1.1-0.1c0.4,0,0.8-0.1,1.2-0.2v1.3c-0.8,0.2-1.5,0.4-2.3,0.6c-0.8,0.1-1.5,0.2-2.2,0.2c-1.3,0-2.2-0.2-2.7-0.7
				c-0.5-0.5-0.8-1.4-0.8-2.7V877.6z"/>
		</g>
		<rect x="386.6" y="893.2" width="20" height="2.2"/>
	</g>
	<g>
		<polygon class="st1" points="124.8,899.2 78.8,926.3 78.8,902.4 124,876.5 		"/>
		<polygon class="st2" points="78.8,926.3 40.9,903.9 40.9,881 78.8,902.4 		"/>
		<polygon class="st3" points="78.8,902.4 40.9,881 117.9,836.6 133.5,871 		"/>
		<polyline class="st4" points="77.9,892.1 57.9,881 77.9,868.6 		"/>
		<polyline class="st4" points="117.4,871.4 94.1,858.5 117.9,844.7 		"/>
		<polyline class="st5" points="77.9,892.1 98,881 77.9,868.6 		"/>
		<polygon class="st6" points="154,945.3 116.3,920.2 116.3,831.9 154,854.1 		"/>
		<polygon class="st7" points="154,854.1 116.3,831.9 136.6,819.6 174.9,842.1 		"/>
		<polygon class="st4" points="175.1,928 153.9,945.2 153.9,854.1 174.9,842.1 		"/>
		<polygon class="st8" points="124.8,870.8 145.6,858.6 124.8,846.9 		"/>
		<polygon class="st9" points="145.6,882.7 124.8,870.8 145.6,858.6 		"/>
		<polygon class="st8" points="124.8,914.4 145.6,902.2 124.8,890.5 		"/>
		<polygon class="st9" points="145.6,926.3 124.8,914.1 145.6,902.4 		"/>
	</g>
</g>
<g id="Layer_3" class="st0">
</g>
<g id="Layer_4">
</g>
</svg>
