<?xml version="1.0" encoding="utf-8"?>
<!-- Generator: Adobe Illustrator 27.5.0, SVG Export Plug-In . SVG Version: 6.00 Build 0)  -->
<svg version="1.1" xmlns="http://www.w3.org/2000/svg" xmlns:xlink="http://www.w3.org/1999/xlink" x="0px" y="0px"
	 viewBox="0 0 170 152.6" style="enable-background:new 0 0 170 152.6;" xml:space="preserve">
<style type="text/css">
	.st0{display:none;}
	.st1{fill:#8687BA;}
	.st2{fill:#B0AFDC;}
	.st3{fill:#D8D8F1;}
	.st4{fill:#8987B8;}
	.st5{fill:#B0AFD6;}
	.st6{fill:#AEB0D9;}
	.st7{fill:#D8D9EE;}
	.st8{fill:#8888B3;}
	.st9{fill:#D7D7EE;}
</style>
<g id="Layer_1" class="st0">
	
		<image style="display:inline;overflow:visible;" width="1016" height="790" xlink:href="../../../../../../Screenshot 2023-05-09 at 1.09.28 pm.png"  transform="matrix(1.063 0 0 1.063 -23.0343 -748.1385)">
	</image>
</g>
<g id="Layer_2">
	<g>
		<polygon class="st1" points="101.8,93 55.8,120.2 55.8,96.3 101,70.3 		"/>
		<polygon class="st2" points="55.8,120.2 17.9,97.8 17.9,74.8 55.8,96.3 		"/>
		<polygon class="st3" points="55.8,96.3 17.9,74.8 94.9,30.5 110.5,64.8 		"/>
		<polyline class="st4" points="54.9,86 34.9,74.8 54.9,62.4 		"/>
		<polyline class="st4" points="94.4,65.2 71.1,52.3 94.9,38.6 		"/>
		<polyline class="st5" points="54.9,86 75,74.8 54.9,62.4 		"/>
		<polygon class="st6" points="131,139.2 93.4,114 93.4,25.7 131,47.9 		"/>
		<polygon class="st7" points="131,47.9 93.4,25.7 113.6,13.4 151.9,35.9 		"/>
		<polygon class="st4" points="152.1,121.8 130.9,139.1 130.9,47.9 151.9,35.9 		"/>
		<polygon class="st8" points="101.8,64.6 122.6,52.4 101.8,40.7 		"/>
		<polygon class="st9" points="122.6,76.6 101.8,64.6 122.6,52.4 		"/>
		<polygon class="st8" points="101.8,108.2 122.6,96 101.8,84.3 		"/>
		<polygon class="st9" points="122.6,120.2 101.8,108 122.6,96.3 		"/>
	</g>
</g>
<g id="Layer_3" class="st0">
</g>
<g id="Layer_4">
</g>
</svg>
